<?xml version="1.0" standalone="no"?>
<!DOCTYPE svg PUBLIC "-//W3C//DTD SVG 20010904//EN"
 "http://www.w3.org/TR/2001/REC-SVG-20010904/DTD/svg10.dtd">
<svg version="1.0" xmlns="http://www.w3.org/2000/svg"
 width="596.000000pt" height="419.000000pt" viewBox="0 0 596.000000 419.000000"
 preserveAspectRatio="xMidYMid meet">

<g transform="translate(0.000000,419.000000) scale(0.100000,-0.100000)"
fill="#000000" stroke="none">
<path d="M870 3196 l0 -702 103 -13 c56 -6 320 -41 587 -77 267 -36 586 -78
710 -95 124 -16 257 -34 295 -39 39 -5 207 -27 375 -49 848 -113 922 -124 913
-131 -4 -4 -51 -13 -103 -19 -52 -7 -106 -14 -120 -16 -14 -2 -97 -13 -185
-25 -88 -12 -239 -32 -335 -45 -96 -13 -249 -33 -340 -45 -91 -12 -244 -32
-340 -45 -96 -13 -245 -33 -330 -44 -85 -11 -222 -30 -305 -41 -82 -11 -235
-31 -340 -45 -104 -14 -255 -34 -335 -45 -80 -11 -169 -22 -197 -26 l-53 -7 0
-698 c0 -385 2 -699 5 -699 3 0 425 180 938 399 513 220 1454 623 2092 896
638 273 1163 500 1167 503 4 4 -691 306 -1545 672 -854 365 -1801 771 -2104
901 l-553 237 0 -702z"/>
</g>
</svg>
